<?xml version="1.0" encoding="UTF-8"?>
<!-- Generator: Adobe Illustrator 27.1.0, SVG Export Plug-In . SVG Version: 6.00 Build 0)  -->
<svg xmlns="http://www.w3.org/2000/svg" xmlns:xlink="http://www.w3.org/1999/xlink" version="1.1" id="Capa_1" x="0px" y="0px" viewBox="0 0 120.7 28.6" style="enable-background:new 0 0 120.7 28.6;" xml:space="preserve">
<style type="text/css">
	.st0{fill:#007FC7;}
</style>
<g>
	<g>
		<polygon class="st0" points="24.1,27.2 14.5,14.8 22.9,2.2 20.7,2.2 13.3,13.3 4.6,2.2 1.7,2.2 1.8,3.4 3.2,3.4 12.1,15 3.9,27.2     6.3,27.2 13.3,16.6 21.4,27.2   "></polygon>
		<polygon class="st0" points="37.3,25.1 37.3,2.2 34.8,2.2 34.8,26.8 36.4,26.8 37.3,26.8 39.5,26.8 39.5,25.1   "></polygon>
		<polygon class="st0" points="107.7,25.1 107.7,2.2 105.2,2.2 105.2,26.8 106.7,26.8 107.7,26.8 109.9,26.8 109.9,25.1   "></polygon>
		<rect x="21.5" y="14.2" class="st0" width="10.2" height="1.2"></rect>
		<polygon class="st0" points="62,2.4 64.1,2.4 71.7,24.6 80,2.4 82.8,2.4 82.8,3.7 81.7,3.7 73.3,26.2 69.9,26.2   "></polygon>
		<path class="st0" d="M61.6,15.3L61.6,15.3c0-0.3,0-0.6,0-0.9v-0.6l0,0C61,7.3,57,2.2,51.7,2.2c-5.5,0-9.9,5.5-9.9,12.3    s4.5,12,9.9,12.3c3.5,0.1,6.5-1.8,8.2-4.8h-2.2c-1.4,1.9-3.5,3-5.8,2.9c-4.1-0.2-7.5-4.4-7.9-9.4L61.6,15.3L61.6,15.3z M51.9,4.2    c4.3,0,7.3,4.2,8,9.5H43.8C44,8.5,47.5,4.2,51.9,4.2z"></path>
		<path class="st0" d="M101.8,15.3L101.8,15.3c0-0.3,0-0.6,0-0.9v-0.6h-0.1c-0.6-6.5-4.5-11.6-9.9-11.6c-5.5,0-9.9,5.5-9.9,12.3    s4.5,12,9.9,12.3c3.5,0.1,6.5-1.8,8.2-4.8h-2.2c-1.4,1.9-3.5,3-5.8,2.9c-4.1-0.2-7.5-4.4-7.9-9.4L101.8,15.3L101.8,15.3z M92,4.2    c4.3,0,7.3,4.2,8,9.5H84C84.1,8.5,87.7,4.2,92,4.2z"></path>
	</g>
	<g>
		<path class="st0" d="M118.8,6.1c0,2.2-1.7,3.9-4,3.9c-2.2,0-4-1.7-4-3.9c0-2.1,1.8-3.9,4-3.9C117.1,2.2,118.8,3.9,118.8,6.1z     M111.9,6.1c0,1.7,1.3,3.1,3,3.1c1.7,0,2.9-1.4,2.9-3.1c0-1.7-1.2-3.1-3-3.1C113.1,3,111.9,4.4,111.9,6.1z M114.3,8.1h-0.9V4.2    c0.4-0.1,0.8-0.1,1.5-0.1c0.7,0,1.1,0.1,1.3,0.3c0.2,0.2,0.4,0.5,0.4,0.8c0,0.4-0.3,0.8-0.8,0.9v0c0.4,0.1,0.6,0.4,0.7,0.9    c0.1,0.6,0.2,0.8,0.3,1h-1c-0.1-0.1-0.2-0.5-0.3-0.9c-0.1-0.4-0.3-0.6-0.8-0.6h-0.4V8.1z M114.3,5.9h0.4c0.5,0,0.9-0.2,0.9-0.6    c0-0.4-0.3-0.6-0.8-0.6c-0.2,0-0.4,0-0.5,0V5.9z"></path>
	</g>
</g>
</svg>
